<svg width="96" height="48" viewBox="0 0 96 48" fill="none" xmlns="http://www.w3.org/2000/svg">
<path d="M45.2956 7.4C47.981 7.4 50.2356 8.274 52.0596 10.022C53.8836 11.77 54.7956 13.9993 54.7956 16.71C54.7956 19.4207 53.8836 21.65 52.0596 23.398C50.2356 25.146 47.981 26.02 45.2956 26.02H41.7616V34H34.9596V7.4H45.2956ZM45.2956 19.56C46.0556 19.56 46.689 19.294 47.1956 18.762C47.7276 18.23 47.9936 17.546 47.9936 16.71C47.9936 15.874 47.7276 15.2027 47.1956 14.696C46.689 14.164 46.0556 13.898 45.2956 13.898H41.7616V19.56H45.2956ZM65.5039 7.4C68.1892 7.4 70.4439 8.274 72.2679 10.022C74.0919 11.77 75.0039 13.9993 75.0039 16.71C75.0039 19.4207 74.0919 21.65 72.2679 23.398C70.4439 25.146 68.1892 26.02 65.5039 26.02H61.9699V34H55.1679V7.4H65.5039ZM65.5039 19.56C66.2639 19.56 66.8972 19.294 67.4039 18.762C67.9359 18.23 68.2019 17.546 68.2019 16.71C68.2019 15.874 67.9359 15.2027 67.4039 14.696C66.8972 14.164 66.2639 13.898 65.5039 13.898H61.9699V19.56H65.5039ZM84.3062 16.748C86.9155 16.748 89.0815 17.508 90.8042 19.028C92.5522 20.548 93.4262 22.7013 93.4262 25.488C93.4262 28.376 92.4889 30.618 90.6142 32.214C88.7395 33.7847 86.4089 34.57 83.6222 34.57C81.2915 34.57 79.2649 34.076 77.5422 33.088C75.8195 32.0747 74.5655 30.5673 73.7802 28.566L79.7082 25.184C80.2655 27.0333 81.5702 27.958 83.6222 27.958C84.5849 27.958 85.3195 27.7427 85.8262 27.312C86.3582 26.856 86.6242 26.248 86.6242 25.488C86.6242 24.7027 86.3582 24.0947 85.8262 23.664C85.3195 23.2333 84.6229 23.018 83.7362 23.018H75.2242L76.3262 7.4H91.9822V13.898H82.5962L82.4062 16.748H84.3062Z" fill="white"/>
<path opacity="0.6" d="M18.6142 10.6905C15.0696 10.7675 11.7008 12.2436 9.24897 14.794C6.79717 17.3445 5.4632 20.7604 5.54051 24.2903C5.61783 27.8202 7.1001 31.175 9.66124 33.6166C12.2224 36.0581 15.6526 37.3865 19.1973 37.3096L18.9058 24L18.6142 10.6905Z" fill="white"/>
<path opacity="0.4" d="M9.45286 14.5864C6.94579 17.083 5.53733 20.4692 5.53733 23.9999C5.53733 27.5307 6.94579 30.9168 9.45285 33.4134C11.9599 35.91 15.3602 37.3126 18.9058 37.3126C22.4513 37.3126 25.8516 35.91 28.3587 33.4134L18.9058 23.9999L9.45286 14.5864Z" fill="white"/>
</svg>
