<svg width="101" height="49" viewBox="0 0 101 49" fill="none" xmlns="http://www.w3.org/2000/svg">
<path d="M50.6234 8.24985C53.3087 8.24985 55.5634 9.12385 57.3874 10.8719C59.2114 12.6199 60.1234 14.8492 60.1234 17.5599C60.1234 20.2705 59.2114 22.4999 57.3874 24.2479C55.5634 25.9959 53.3087 26.8699 50.6234 26.8699H47.0894V34.8499H40.2874V8.24985H50.6234ZM50.6234 20.4099C51.3834 20.4099 52.0167 20.1439 52.5234 19.6119C53.0554 19.0799 53.3214 18.3959 53.3214 17.5599C53.3214 16.7239 53.0554 16.0525 52.5234 15.5459C52.0167 15.0139 51.3834 14.7479 50.6234 14.7479H47.0894V20.4099H50.6234ZM70.8317 8.24985C73.517 8.24985 75.7717 9.12385 77.5957 10.8719C79.4197 12.6199 80.3317 14.8492 80.3317 17.5599C80.3317 20.2705 79.4197 22.4999 77.5957 24.2479C75.7717 25.9959 73.517 26.8699 70.8317 26.8699H67.2977V34.8499H60.4957V8.24985H70.8317ZM70.8317 20.4099C71.5917 20.4099 72.225 20.1439 72.7317 19.6119C73.2637 19.0799 73.5297 18.3959 73.5297 17.5599C73.5297 16.7239 73.2637 16.0525 72.7317 15.5459C72.225 15.0139 71.5917 14.7479 70.8317 14.7479H67.2977V20.4099H70.8317ZM89.6339 17.5979C92.2433 17.5979 94.4093 18.3579 96.1319 19.8779C97.8799 21.3979 98.7539 23.5512 98.7539 26.3379C98.7539 29.2259 97.8166 31.4679 95.9419 33.0639C94.0673 34.6345 91.7366 35.4199 88.9499 35.4199C86.6193 35.4199 84.5926 34.9259 82.8699 33.9379C81.1473 32.9245 79.8933 31.4172 79.1079 29.4159L85.0359 26.0339C85.5933 27.8832 86.8979 28.8079 88.9499 28.8079C89.9126 28.8079 90.6473 28.5925 91.1539 28.1619C91.6859 27.7059 91.9519 27.0979 91.9519 26.3379C91.9519 25.5525 91.6859 24.9445 91.1539 24.5139C90.6473 24.0832 89.9506 23.8679 89.0639 23.8679H80.5519L81.6539 8.24985H97.3099V14.7479H87.9239L87.7339 17.5979H89.6339Z" fill="#04052E"/>
<path d="M19.0014 9.54034C15.4715 9.61733 12.1167 11.0934 9.67515 13.6439C7.23358 16.1943 5.90516 19.6103 5.98216 23.1402C6.05915 26.6701 7.53524 30.0248 10.0857 32.4664C12.6362 34.908 16.0521 36.2364 19.582 36.1594L19.2917 22.8499L19.0014 9.54034Z" fill="url(#paint0_linear_549_3)"/>
<path d="M9.87813 13.4363C7.38151 15.9329 5.97893 19.319 5.97893 22.8498C5.97893 26.3805 7.38151 29.7666 9.87813 32.2633C12.3747 34.7599 15.7609 36.1625 19.2916 36.1625C22.8224 36.1625 26.2085 34.7599 28.7051 32.2633L19.2916 22.8498L9.87813 13.4363Z" fill="url(#paint1_linear_549_3)"/>
<defs>
<linearGradient id="paint0_linear_549_3" x1="14.1173" y1="36.1033" x2="17.8824" y2="10.4124" gradientUnits="userSpaceOnUse">
<stop stop-color="#69B8FD"/>
<stop offset="0.744071" stop-color="#FB99A4"/>
</linearGradient>
<linearGradient id="paint1_linear_549_3" x1="9.79859" y1="17.4441" x2="29.9573" y2="73.8014" gradientUnits="userSpaceOnUse">
<stop stop-color="#69B8FD"/>
<stop offset="1" stop-color="#FB99A4"/>
</linearGradient>
</defs>
</svg>
