<svg width="306" height="28" viewBox="0 0 306 28" fill="none" xmlns="http://www.w3.org/2000/svg">
<path d="M295.619 18.4362L294.737 18.335C295.516 18.2557 296.305 18.2331 297.09 18.2675C287.801 17.4242 275.593 18.1916 267.82 19.229C264.992 19.229 262.491 19.5663 262.242 19.9374C261.993 20.3085 264.098 20.6121 266.96 20.5952C267.594 20.5952 268.329 20.6458 268.782 20.7049C273.621 21.2539 278.498 21.603 283.389 21.7506L280.187 21.4723C281.782 21.5398 283.343 21.6072 285.108 21.5904L284.497 21.3964C289.973 21.8097 297.441 21.5482 301.186 20.7892C304.931 20.0301 303.584 19.1025 298.097 18.6471L295.619 18.4362Z" fill="url(#paint0_linear_527_127)"/>
<path d="M285.323 16.4038C288.604 16.6062 291.761 16.8338 294.929 17.0615L295.551 17.1796L295.314 16.6062C291.246 17.1487 287.133 17.4784 283.004 17.5929L281.42 17.7025C280.917 17.7224 280.428 17.8323 279.994 18.023C279.643 18.3097 281.046 18.5459 283.128 18.5628H285.538C291.41 18.8158 300.609 18.723 303.845 17.7194C304.569 17.4833 303.912 17.2133 303.743 16.9519C303.958 16.5724 301.74 16.2688 298.81 16.2772C295.879 16.2857 293.368 16.5977 293.153 16.9857L291.648 16.9266L292.779 16.7748C291.976 17.1122 289.306 17.2218 287.326 17.4242L284.361 17.5592L286.081 18.4025L287.62 18.2591C287.508 18.2346 287.398 18.2036 287.292 18.1663C290.222 17.888 292.949 17.6181 296.207 17.4157L300.258 17.0447C301.389 16.8676 301.242 16.6146 300.032 16.4796L298.221 16.3025L299.036 16.4121C294.872 16.2603 290.482 16.1929 286.364 16.0327C285.764 15.9953 285.16 16.0323 284.576 16.1423C284.361 16.2773 284.644 16.3785 285.323 16.4038Z" fill="url(#paint1_linear_527_127)"/>
<path d="M299.986 16.1001C300.735 16.1814 301.492 16.2153 302.249 16.2013L302.656 16.1254L301.333 15.9904C300.405 15.9061 299.93 15.982 299.986 16.1001Z" fill="url(#paint2_linear_527_127)"/>
<path d="M302.679 16.1252L303.234 16.1758L302.86 16.0999H302.815L302.679 16.1252Z" fill="url(#paint3_linear_527_127)"/>
<path d="M121.459 22.1216C108.606 22.4 95.7193 22.7879 82.8437 23.2349C82.4025 23.2349 82.0518 23.3108 82.0404 23.3614C82.0291 23.412 82.3686 23.4457 82.7646 23.4288C95.6515 22.9903 108.482 22.5855 121.323 22.324C121.611 22.3316 121.897 22.2912 122.161 22.206C122.172 22.1469 121.867 22.1132 121.459 22.1216Z" fill="url(#paint4_linear_527_127)"/>
<path d="M24.4849 20.8651C24.7904 20.8061 24.7678 20.7471 24.4849 20.7218C24.1322 20.7042 23.7779 20.7241 23.4327 20.7808C23.1838 20.8314 23.1951 20.8988 23.4327 20.9157C23.7849 20.9345 24.1389 20.9175 24.4849 20.8651Z" fill="url(#paint5_linear_527_127)"/>
<path d="M26.5441 16.4289C28.3317 16.2602 30.0288 16.0831 31.5336 15.8639C31.8134 15.8255 32.0981 15.8113 32.3822 15.8217C32.2577 15.7373 32.5859 15.6446 33.2308 15.5771C45.9367 14.2109 59.6947 13.2832 73.2379 12.2965C73.3853 12.1811 73.5737 12.0992 73.781 12.0603C75.3219 11.7289 76.9179 11.5614 78.5216 11.5627H80.0151C86.0116 11.4447 91.9856 11.2844 97.9482 11.1917C99.1475 11.0398 100.55 10.9218 102.089 10.8374C107.192 10.3736 112.272 9.89288 117.567 9.50493C117.228 9.50493 117.013 9.39529 117.001 9.31095C116.99 9.22662 118.291 8.93144 119.717 8.88927L121.866 8.79652L115.655 8.87241C115.361 8.87241 115.089 8.87241 114.829 8.87241C112.566 8.95113 110.277 9.04389 107.961 9.15071C87.6862 10.0868 68.7235 11.6808 49.9645 13.3675C49.6084 13.4092 49.2458 13.4092 48.8897 13.3675C48.6973 13.3675 48.72 13.2663 49.0707 13.2242C54.9428 12.4651 60.3849 11.6639 66.042 10.8965C71.6992 10.129 77.6052 9.39528 84.3032 8.80493C100.256 7.37965 116.051 6.1568 132.491 5.0773C149.733 4.49538 165.641 3.50864 183.212 2.69058C206.972 1.56048 229.442 1.00388 252.738 0.497864C261.45 0.194254 269.495 0.852066 270.683 1.9653C271.384 2.63999 269.438 3.30624 265.885 3.80382H268.012L271.407 3.88816C273.985 3.91373 276.553 4.14271 279.066 4.57128L281.454 5.00981C284.633 5.85317 289.747 6.54475 292.349 7.45558L291.784 7.80977L292.395 7.91097C293.761 7.97518 295.086 8.28792 296.253 8.82181L296.083 9.25191C295.313 9.93953 294.278 10.4342 293.119 10.6688C293.119 10.8543 292.994 11.0314 292.587 11.2085C293.967 11.6302 294.635 12.0519 293.583 12.6C294.409 12.7181 294.273 12.9037 293.3 13.0217C292.925 13.0647 292.547 13.0928 292.168 13.1061C292.621 13.2157 292.757 13.241 293.368 13.3591L294.669 13.4097L298.731 13.5109C299.619 13.5731 300.5 13.683 301.367 13.8398C303.188 14.5819 303.188 14.582 302.928 14.9109L302.577 15.0121L304.512 15.1386C304.742 15.1708 304.968 15.213 305.191 15.2651C305.259 15.4422 305.259 15.4422 305.508 15.5012C305.531 15.5192 305.548 15.5404 305.56 15.5636C305.572 15.5867 305.577 15.6114 305.576 15.6361C304.784 15.8386 304.784 15.8385 304.761 15.8976C304.738 15.9566 304.32 15.9988 304.32 15.9988L302.849 16.1084L300.812 15.6699L300.382 15.8386L299.907 15.6277L300.179 15.8217L299.16 15.7205L300.292 15.8723C297.882 15.8301 297.882 15.8301 296.898 15.8723C295.913 15.9145 295.042 15.9229 294.94 15.9229C294.984 15.9522 295.015 15.9903 295.031 16.0325L289.939 15.9314L289.351 15.8133C288.955 15.8842 288.547 15.9126 288.14 15.8976H286.817H286.534L285.402 16.0072H285.176L280.39 16.4795L278.195 16.4205L278.84 16.4964C279.259 16.547 278.84 16.7241 279.112 16.7409C284.622 17.0108 290.618 17.0867 296.524 17.2048C297.289 17.1351 298.064 17.2016 298.787 17.3988C298.923 17.5422 298.176 17.6771 297.09 17.7024C291.139 18.2337 284.486 18.5458 277.799 18.6132C271.113 18.6807 264.347 18.6132 258.192 18.3433L248.439 18.2759L248.903 18.3518L246.368 18.2759H246.097L248.031 18.5457L249.367 18.6132C256.936 18.6132 263.815 18.959 271.135 19.1614C275.061 19.2626 278.444 19.5156 282.167 19.6758C283.117 19.6758 283.784 19.777 283.683 19.912C283.074 20.0982 282.415 20.1734 281.759 20.1313C269.393 20.5192 255.273 20.5698 245.305 19.7011C243.213 19.7507 241.119 19.6971 239.037 19.5409H238.935L240.349 19.7686C238.652 19.7686 237.736 19.5493 236.197 19.4903L236.785 19.8277C228.435 19.7686 219.44 20.0891 211.679 19.7517H210.785C207.493 20.0807 204.155 20.4096 200.218 20.5361H204.189C201.349 20.7553 198.532 20.9324 195.466 20.9999C187.172 21.177 177.861 20.9071 173.38 20.1059C157.337 20.7047 141.259 21.3035 125.283 22.1216C124.7 22.1811 124.105 22.1466 123.541 22.0204C123.45 21.9192 123.982 21.7927 124.808 21.7505C130.518 21.3513 136.281 21.0027 142.096 20.7047C147.889 20.4011 153.716 20.106 159.543 19.8614C154.655 19.912 149.752 19.9879 144.834 20.0891C139.901 20.1819 134.946 20.2915 129.945 20.4602L126.109 20.6457C124.831 20.7047 123.575 20.7216 122.308 20.7216C115.915 20.9493 109.692 21.177 103.436 21.4385C97.1788 21.6999 90.8994 22.0119 84.405 22.4167C78.861 22.7541 73.6678 23.0999 68.4859 23.4625C63.304 23.8252 58.1108 24.1878 52.646 24.6179L30.1646 26.3047C22.799 26.836 15.4561 27.3335 7.77375 27.7468C5.7485 27.8817 3.82508 27.7468 3.53091 27.5359C3.23674 27.3251 4.66233 26.9625 6.71021 26.8191C38.5485 24.289 69.8662 21.818 103.447 20.6373L114.173 20.2662C114.116 20.2662 114.071 20.1987 114.071 20.165C114.071 20.1312 114.365 19.8698 114.92 19.7349C110.892 19.8529 106.83 19.9542 102.757 20.0385C97.0996 20.4096 91.4425 20.7975 85.7854 21.1349C80.1282 21.4722 74.2109 21.7505 68.1804 21.9782C59.8871 22.2312 52.3405 22.265 44.6468 22.3409C39.8157 22.6445 34.9958 22.9818 30.1533 23.3191L15.5353 24.3396C15.2214 24.3845 14.8988 24.3845 14.5849 24.3396C14.4378 24.289 14.5849 24.23 15.0262 24.1878C21.6903 23.4963 28.5467 22.9228 35.471 22.3493C34.3395 22.2397 33.6607 22.0541 33.706 21.8095C33.7512 21.565 34.5658 21.3035 35.8444 21.0843L31.1037 21.2951C30.1194 21.2951 29.3387 21.2951 29.3387 21.1601C29.3387 21.0252 30.108 20.8903 31.0358 20.8481C37.4849 20.5361 43.9227 20.2577 50.3605 20.0047C58.0655 19.4987 65.7478 19.0602 73.4755 18.6132C72.6632 18.5649 71.8715 18.3987 71.1447 18.1241L67.5582 18.3096C45.7783 19.9963 23.4326 21.43 0.917326 22.5264C0.476071 22.5264 0.102678 22.5264 0.0800497 22.4674C0.0574212 22.4083 0.396854 22.3493 0.792852 22.3324C7.58139 22.0119 14.3699 21.6409 21.1585 21.2529C20.8756 21.2529 20.819 21.1686 21.1585 21.118C21.5043 21.0642 21.858 21.0443 22.2107 21.0589C22.5388 21.0589 22.5162 21.1433 22.2673 21.1939C34.86 20.4602 47.3509 19.6253 59.6042 18.7144C48.1203 19.3048 36.6363 19.8783 25.1524 20.3505L21.4187 20.7469C21.1049 20.7926 20.7822 20.7926 20.4683 20.7469C20.3665 20.7469 20.6041 20.6373 20.9548 20.612L22.007 20.5023C19.8234 20.5867 18.115 20.4349 18.0923 20.1481C18.0697 19.8614 19.9818 19.5156 22.2446 19.4144C28.2864 19.0602 34.2943 18.7228 40.3474 18.4192L42.2934 18.2759L44.2282 18.0397L16.1463 19.018C15.343 19.0686 14.6528 19.018 14.6188 18.9168C14.5849 18.8156 15.2072 18.6891 16.0105 18.6469C32.3143 17.3903 48.8218 16.294 65.5216 15.3747C70.9185 14.6832 76.3493 13.9747 81.882 13.3L79.7436 13.3759C61.6408 14.1603 46.4119 16.1337 28.9201 17.2807C28.6307 17.3368 28.3269 17.3368 28.0375 17.2807C27.981 17.2301 28.2751 17.1626 28.7164 17.1373C37.2473 16.5301 44.9976 15.7289 53.4493 15.0205C60.4528 14.4386 67.1169 13.9157 73.6113 13.2832C60.2378 13.9916 47.4867 15.1386 34.283 16.0325C33.7719 16.0782 33.2553 16.0782 32.7442 16.0325C32.7442 16.0325 32.6085 16.1 32.4274 16.1253C30.7982 16.353 29.0332 16.547 27.1777 16.7241C26.8488 16.7716 26.5108 16.7716 26.182 16.7241C25.9444 16.547 26.1594 16.4795 26.5441 16.4289ZM260.092 14.7422L260.432 14.7928L259.3 14.7084L257.637 14.3121L260.092 14.7422ZM149.948 19.5999C156.975 19.3722 163.944 19.2626 170.902 19.3132L165.834 19.5409C160.618 19.6252 155.323 19.6252 150.005 19.6421L149.948 19.5999ZM273.873 16.0831C272.287 15.9176 270.716 15.6839 269.166 15.3831C267.956 15.4506 266.677 15.4843 265.387 15.5012C261.925 15.5012 258.599 15.5012 255.205 15.5012C255.646 15.6446 254.843 15.6446 254.435 15.6699L253.191 15.7205L263.928 15.8892C267.266 15.9904 270.818 16.0072 273.93 16.1253L273.873 16.0831ZM298.583 15.1723L298.889 15.2229L298.233 15.459L298.583 15.1723ZM299.613 14.7844H299.104C299.189 14.7389 299.293 14.718 299.397 14.7258C299.502 14.7336 299.598 14.7694 299.67 14.8265L299.613 14.7844ZM294.94 14.5566C295.159 14.6063 295.382 14.6458 295.608 14.6747L294.94 14.5566ZM291.342 8.02906L289.577 9.16759L291.512 8.07121L291.342 8.02906Z" fill="url(#paint6_linear_527_127)"/>
<defs>
<linearGradient id="paint0_linear_527_127" x1="298.563" y1="19.0033" x2="267.656" y2="22.4963" gradientUnits="userSpaceOnUse">
<stop stop-color="#FB99A4"/>
<stop offset="1" stop-color="#69B8FD"/>
</linearGradient>
<linearGradient id="paint1_linear_527_127" x1="301.382" y1="16.7781" x2="283.083" y2="18.5389" gradientUnits="userSpaceOnUse">
<stop stop-color="#FB99A4"/>
<stop offset="1" stop-color="#69B8FD"/>
</linearGradient>
<linearGradient id="paint2_linear_527_127" x1="302.348" y1="16.0258" x2="300.336" y2="16.2537" gradientUnits="userSpaceOnUse">
<stop stop-color="#FB99A4"/>
<stop offset="1" stop-color="#69B8FD"/>
</linearGradient>
<linearGradient id="paint3_linear_527_127" x1="303.17" y1="16.1215" x2="302.75" y2="16.1539" gradientUnits="userSpaceOnUse">
<stop stop-color="#FB99A4"/>
<stop offset="1" stop-color="#69B8FD"/>
</linearGradient>
<linearGradient id="paint4_linear_527_127" x1="117.533" y1="22.4948" x2="89.8522" y2="31.4393" gradientUnits="userSpaceOnUse">
<stop stop-color="#FB99A4"/>
<stop offset="1" stop-color="#69B8FD"/>
</linearGradient>
<linearGradient id="paint5_linear_527_127" x1="24.5378" y1="20.7748" x2="23.4348" y2="20.8565" gradientUnits="userSpaceOnUse">
<stop stop-color="#FB99A4"/>
<stop offset="1" stop-color="#69B8FD"/>
</linearGradient>
<linearGradient id="paint6_linear_527_127" x1="270.337" y1="8.23147" x2="40.7518" y2="35.3202" gradientUnits="userSpaceOnUse">
<stop stop-color="#FB99A4"/>
<stop offset="1" stop-color="#69B8FD"/>
</linearGradient>
</defs>
</svg>
